<?xml version="1.0" encoding="utf-8" standalone="no"?>
<svg id="Layer_1" xmlns="http://www.w3.org/2000/svg" viewBox="0 0 162.09 36">
  <defs>
    <style>.cls-1{fill:gray;}.cls-2{fill:#0fafdb;}</style>
  </defs>
  <title>Pyramid_Logo_Horizontal_Dark_110119</title>
  <path class="cls-1" d="M74.37,42h-1a.42.42,0,0,1-.26-.08.53.53,0,0,1-.16-.2l-.5-1.38H69.69l-.5,1.38a.53.53,0,0,1-.15.19.39.39,0,0,1-.26.09h-1l2.65-6.73h1.28Zm-2.21-2.54-.82-2.24c0-.1-.08-.22-.13-.36l-.13-.44q-.06.24-.12.45c0,.13-.09.26-.13.36L70,39.49Z" transform="translate(-8.28 -7.33)" />
  <path class="cls-1" d="M87.32,35.3V42h-.64a.49.49,0,0,1-.25-.05.54.54,0,0,1-.19-.16l-3.52-4.49q0,.3,0,.57V42h-1.1V35.3h.79l.1,0,.09.06a.53.53,0,0,1,.09.11L86.25,40c0-.11,0-.22,0-.33s0-.2,0-.29V35.3Z" transform="translate(-8.28 -7.33)" />
  <path class="cls-1" d="M101.17,42h-1a.45.45,0,0,1-.26-.08.43.43,0,0,1-.15-.2l-.51-1.38H96.49L96,41.75a.44.44,0,0,1-.15.19.39.39,0,0,1-.26.09h-1l2.65-6.73h1.28ZM99,39.49l-.82-2.24a3.78,3.78,0,0,1-.12-.36c0-.13-.09-.28-.14-.44q-.06.24-.12.45c0,.13-.09.26-.13.36l-.81,2.23Z" transform="translate(-8.28 -7.33)" />
  <path class="cls-1" d="M112.39,41v1h-3.94V35.3h1.25V41Z" transform="translate(-8.28 -7.33)" />
  <path class="cls-1" d="M121.87,39.42V42h-1.25V39.42l-2.45-4.12h1.1a.35.35,0,0,1,.26.08.53.53,0,0,1,.16.2l1.23,2.25c.07.13.14.26.19.37s.1.24.15.36a2.67,2.67,0,0,1,.14-.36c0-.11.11-.24.18-.37l1.22-2.25a.58.58,0,0,1,.16-.19.37.37,0,0,1,.26-.09h1.11Z" transform="translate(-8.28 -7.33)" />
  <path class="cls-1" d="M136.3,36.33h-2V42H133v-5.7h-2v-1h5.32Z" transform="translate(-8.28 -7.33)" />
  <path class="cls-1" d="M145,42h-1.26V35.3H145Z" transform="translate(-8.28 -7.33)" />
  <path class="cls-1" d="M157.72,40.44a.29.29,0,0,1,.19.08l.49.54a2.67,2.67,0,0,1-1,.78,3.49,3.49,0,0,1-1.44.27,3.34,3.34,0,0,1-1.34-.26,3.11,3.11,0,0,1-1-.71,3.23,3.23,0,0,1-.65-1.09,4.14,4.14,0,0,1-.22-1.39,3.94,3.94,0,0,1,.24-1.39,3.09,3.09,0,0,1,1.73-1.79,3.49,3.49,0,0,1,1.35-.26,3.12,3.12,0,0,1,2.28.88l-.42.58a.28.28,0,0,1-.09.1.27.27,0,0,1-.16,0,.28.28,0,0,1-.15,0l-.16-.1-.21-.13-.27-.12a2.47,2.47,0,0,0-.35-.1,2.23,2.23,0,0,0-.47,0,2,2,0,0,0-.83.16,1.75,1.75,0,0,0-.64.47,2.14,2.14,0,0,0-.42.74,3.09,3.09,0,0,0-.15,1,3,3,0,0,0,.16,1,2.33,2.33,0,0,0,.43.74,1.84,1.84,0,0,0,.65.46,2,2,0,0,0,.8.16,3.47,3.47,0,0,0,.47,0,2.11,2.11,0,0,0,.38-.09,1.26,1.26,0,0,0,.33-.16,2.06,2.06,0,0,0,.31-.23l.1-.07A.19.19,0,0,1,157.72,40.44Z" transform="translate(-8.28 -7.33)" />
  <path class="cls-1" d="M169.42,36.52a.33.33,0,0,1-.11.14.3.3,0,0,1-.16.05.47.47,0,0,1-.21-.07l-.27-.16a2.56,2.56,0,0,0-.37-.17,1.9,1.9,0,0,0-.51-.07,1.25,1.25,0,0,0-.45.07,1,1,0,0,0-.33.17.68.68,0,0,0-.2.27.93.93,0,0,0-.06.34.6.6,0,0,0,.13.4,1.41,1.41,0,0,0,.35.27,4,4,0,0,0,.5.2l.57.19a4.12,4.12,0,0,1,.58.23,2.11,2.11,0,0,1,.49.33,1.53,1.53,0,0,1,.36.5,1.87,1.87,0,0,1,.13.71,2.23,2.23,0,0,1-.16.86,2,2,0,0,1-.45.69,2.23,2.23,0,0,1-.74.47,2.78,2.78,0,0,1-1,.17,2.65,2.65,0,0,1-.63-.07,3,3,0,0,1-.6-.18,2.77,2.77,0,0,1-.54-.28,2,2,0,0,1-.45-.36l.37-.6a.43.43,0,0,1,.12-.11.29.29,0,0,1,.16,0,.45.45,0,0,1,.25.09,3,3,0,0,0,.32.21A3,3,0,0,0,167,41a1.72,1.72,0,0,0,.6.09,1.25,1.25,0,0,0,.83-.25.93.93,0,0,0,.29-.73.65.65,0,0,0-.13-.43,1.11,1.11,0,0,0-.35-.29,3.25,3.25,0,0,0-.5-.19l-.57-.17a4.53,4.53,0,0,1-.57-.23,1.7,1.7,0,0,1-.5-.34,1.53,1.53,0,0,1-.35-.52,2.12,2.12,0,0,1,0-1.49,1.77,1.77,0,0,1,.43-.62,2,2,0,0,1,.69-.43,2.5,2.5,0,0,1,.94-.17,3,3,0,0,1,1.1.19,2.48,2.48,0,0,1,.86.52Z" transform="translate(-8.28 -7.33)" />
  <path class="cls-1" d="M72.26,12.45H67.79V29.64h1.39V22.79h3.08a7.82,7.82,0,0,0,2.56-.39,5.5,5.5,0,0,0,1.92-1.07A4.61,4.61,0,0,0,78,19.68a5.1,5.1,0,0,0,.43-2.09,4.78,4.78,0,0,0-1.55-3.8A6.86,6.86,0,0,0,72.26,12.45ZM77,17.59a4.09,4.09,0,0,1-.32,1.61,3.67,3.67,0,0,1-.93,1.27,4.29,4.29,0,0,1-1.48.85,5.88,5.88,0,0,1-2,.31H69.18v-8h3.08a5.26,5.26,0,0,1,3.55,1A3.78,3.78,0,0,1,77,17.59Z" transform="translate(-8.28 -7.33)" />
  <path class="cls-1" d="M92,12.56a.68.68,0,0,0-.2.24l-4.85,7.81a5,5,0,0,0-.3.55,3.09,3.09,0,0,0-.14.32,3.09,3.09,0,0,0-.14-.32,5.89,5.89,0,0,0-.29-.55L81.17,12.8a.75.75,0,0,0-.21-.25.58.58,0,0,0-.32-.1H79.41l6.36,10.11v7.08h1.41V22.56l6.28-10,.08-.13H92.3A.52.52,0,0,0,92,12.56Z" transform="translate(-8.28 -7.33)" />
  <path class="cls-1" d="M102.16,21.77a6.65,6.65,0,0,0,1.82-.49,5.08,5.08,0,0,0,1.54-1,4.22,4.22,0,0,0,1-1.44,4.69,4.69,0,0,0,.35-1.82,4.1,4.1,0,0,0-1.49-3.4,7.18,7.18,0,0,0-4.46-1.16H96.49V29.64h1.39v-7.7H100a2,2,0,0,1,.7.1,1.3,1.3,0,0,1,.41.35l5.44,6.91a1,1,0,0,0,.3.26.72.72,0,0,0,.37.08h1.25l-6-7.49A2.18,2.18,0,0,0,102.16,21.77Zm3-3.12a3.32,3.32,0,0,1-.92,1.19,4.65,4.65,0,0,1-1.49.76,7.23,7.23,0,0,1-2,.26H97.88V13.59h3a5.77,5.77,0,0,1,3.42.86,3.06,3.06,0,0,1,1.16,2.63A3.76,3.76,0,0,1,105.17,18.65Z" transform="translate(-8.28 -7.33)" />
  <path class="cls-1" d="M116.81,12.45l-7,17.08,0,.11h1.06a.58.58,0,0,0,.34-.11.58.58,0,0,0,.19-.26l2-4.9h8.24l2,4.9a.83.83,0,0,0,.19.26.47.47,0,0,0,.33.11h1.08l-7-17.19Zm.58,1.89.09-.28.09.28a4.87,4.87,0,0,0,.17.47l3.43,8.48h-7.38l3.43-8.47C117.27,14.69,117.32,14.54,117.39,14.34Z" transform="translate(-8.28 -7.33)" />
  <path class="cls-1" d="M143,12.5a.47.47,0,0,0-.24.23l-6.69,11.82c-.06.12-.12.24-.17.36a1.34,1.34,0,0,0-.07.18c-.08-.19-.16-.36-.25-.53L128.7,12.72a.52.52,0,0,0-.24-.23,1.21,1.21,0,0,0-.3,0h-.92V29.64h1.23V14.74l6.69,11.59a.62.62,0,0,0,.56.35h.19a.6.6,0,0,0,.55-.35L143,14.76c0,.1,0,.2,0,.29V29.64h1.25V12.45h-.94A.76.76,0,0,0,143,12.5Z" transform="translate(-8.28 -7.33)" />
  <rect class="cls-1" x="141.16" y="5.12" width="1.41" height="17.19" />
  <path class="cls-1" d="M169.77,17.48a7.77,7.77,0,0,0-1.68-2.71,7.3,7.3,0,0,0-2.59-1.72,9.19,9.19,0,0,0-3.34-.6h-6.29V29.64h6.29a9.15,9.15,0,0,0,3.34-.59,7.44,7.44,0,0,0,2.59-1.72,7.86,7.86,0,0,0,1.68-2.71,10.3,10.3,0,0,0,.59-3.58A10.22,10.22,0,0,0,169.77,17.48ZM168.92,21a9.36,9.36,0,0,1-.49,3.16,6.48,6.48,0,0,1-1.37,2.33A5.77,5.77,0,0,1,164.93,28a7.39,7.39,0,0,1-2.77.5h-4.88V13.62h4.88a7.46,7.46,0,0,1,2.77.5,5.85,5.85,0,0,1,2.13,1.45,6.39,6.39,0,0,1,1.37,2.33A9.24,9.24,0,0,1,168.92,21Z" transform="translate(-8.28 -7.33)" />
  <polygon class="cls-2" points="28 13.48 36.13 23.48 30.67 26.73 30.67 32.03 44 24.98 22.67 0 22.67 36 28 33.35 28 13.48" />
  <polygon class="cls-1" points="16 28.05 7.87 23.48 13.33 17.45 13.33 9.5 0 24.98 21.33 36 21.33 0 16 5.53 16 28.05" />
</svg>